<svg width="320.803" height="73.205" viewBox="0 0 320.803 73.205" xmlns="http://www.w3.org/2000/svg"><g id="svgGroup" stroke-linecap="round" fill-rule="nonzero" font-size="9pt" stroke="#ffffff" stroke-width="0.2" fill="#ffffff" style="stroke:#ffffff;stroke-width:0.2;fill:#ffffff"><path d="M 170.7 71.603 L 149.2 71.603 L 149.2 1.603 L 168.6 1.603 L 196.6 47.303 L 186.4 47.303 L 213.6 1.603 L 233 1.603 L 233.2 71.603 L 211.7 71.603 L 211.5 34.003 L 214.9 34.003 L 196.3 65.303 L 185.9 65.303 L 166.5 34.003 L 170.7 34.003 L 170.7 71.603 Z M 23.6 71.603 L 0 71.603 L 0 1.603 L 56.9 1.603 L 56.9 19.403 L 23.6 19.403 L 23.6 71.603 Z M 101.2 73.203 Q 92.6 73.203 85.35 70.503 Q 78.1 67.803 72.8 62.853 Q 67.5 57.903 64.55 51.203 Q 61.6 44.503 61.6 36.603 Q 61.6 28.603 64.55 21.953 Q 67.5 15.303 72.8 10.353 Q 78.1 5.403 85.35 2.703 Q 92.6 0.003 101.1 0.003 Q 109.7 0.003 116.9 2.703 Q 124.1 5.403 129.4 10.353 Q 134.7 15.303 137.65 21.953 Q 140.6 28.603 140.6 36.603 Q 140.6 44.503 137.65 51.203 Q 134.7 57.903 129.4 62.853 Q 124.1 67.803 116.9 70.503 Q 109.7 73.203 101.2 73.203 Z M 101.1 54.103 Q 104.4 54.103 107.25 52.903 Q 110.1 51.703 112.25 49.453 Q 114.4 47.203 115.6 43.953 Q 116.8 40.703 116.8 36.603 Q 116.8 32.503 115.6 29.253 Q 114.4 26.003 112.25 23.753 Q 110.1 21.503 107.25 20.303 Q 104.4 19.103 101.1 19.103 Q 97.8 19.103 94.95 20.303 Q 92.1 21.503 89.95 23.753 Q 87.8 26.003 86.6 29.253 Q 85.4 32.503 85.4 36.603 Q 85.4 40.703 86.6 43.953 Q 87.8 47.203 89.95 49.453 Q 92.1 51.703 94.95 52.903 Q 97.8 54.103 101.1 54.103 Z M 281.4 73.203 Q 272.8 73.203 265.55 70.503 Q 258.3 67.803 253 62.853 Q 247.7 57.903 244.75 51.203 Q 241.8 44.503 241.8 36.603 Q 241.8 28.603 244.75 21.953 Q 247.7 15.303 253 10.353 Q 258.3 5.403 265.55 2.703 Q 272.8 0.003 281.3 0.003 Q 289.9 0.003 297.1 2.703 Q 304.3 5.403 309.6 10.353 Q 314.9 15.303 317.85 21.953 Q 320.8 28.603 320.8 36.603 Q 320.8 44.503 317.85 51.203 Q 314.9 57.903 309.6 62.853 Q 304.3 67.803 297.1 70.503 Q 289.9 73.203 281.4 73.203 Z M 281.3 54.103 Q 284.6 54.103 287.45 52.903 Q 290.3 51.703 292.45 49.453 Q 294.6 47.203 295.8 43.953 Q 297 40.703 297 36.603 Q 297 32.503 295.8 29.253 Q 294.6 26.003 292.45 23.753 Q 290.3 21.503 287.45 20.303 Q 284.6 19.103 281.3 19.103 Q 278 19.103 275.15 20.303 Q 272.3 21.503 270.15 23.753 Q 268 26.003 266.8 29.253 Q 265.6 32.503 265.6 36.603 Q 265.6 40.703 266.8 43.953 Q 268 47.203 270.15 49.453 Q 272.3 51.703 275.15 52.903 Q 278 54.103 281.3 54.103 Z M 52.8 49.203 L 22 49.203 L 22 31.403 L 52.8 31.403 L 52.8 49.203 Z"/></g></svg>